<svg height="512" viewBox="0 0 64 64" width="512" xmlns="http://www.w3.org/2000/svg"><g id="Invoice"><path d="m61 15.05v37.95a2.006 2.006 0 0 1 -2 2h-40v-50a2.006 2.006 0 0 1 2-2h27.99l.01.01v9.99a2.006 2.006 0 0 0 2 2h9.95z" fill="#fee9ab"/><path d="m61 15.05v37.95a2.006 2.006 0 0 1 -2 2h-4a2.006 2.006 0 0 0 2-2v-37.95l-.05-.05h4z" fill="#ffd422"/><path d="m49 3.01 11.95 11.99h-9.95a2.006 2.006 0 0 1 -2-2z" fill="#ffd422"/><path d="m57 39a12 12 0 0 1 -22 6.64v-13.27a12 12 0 0 1 22 6.63z" fill="#ffcd00"/><path d="m57 39a12 12 0 0 1 -12 12 11.876 11.876 0 0 1 -1.99-.17 12 12 0 0 0 0-23.66 11.786 11.786 0 0 1 1.99-.17 12 12 0 0 1 12 12z" fill="#ddb200"/><path d="m35 21v36a4 4 0 0 1 -4 4h-25c-2.21 0-3-1.79-3-4v-36a4 4 0 0 1 4-4h24a4 4 0 0 1 4 4z" fill="#c6c5ca"/><path d="m35 21v36a4 4 0 0 1 -4 4h-4a4 4 0 0 0 4-4v-36a4 4 0 0 0 -4-4h4a4 4 0 0 1 4 4z" fill="#898890"/><path d="m21 45h10v12h-10z" fill="#57a4ff"/><path d="m21 31h10v10h-10z" fill="#ff3051"/><rect fill="#bdfdff" height="6" rx="1" width="24" x="7" y="21"/><path d="m31 22v4a1 1 0 0 1 -1 1h-4a1 1 0 0 0 1-1v-4a1 1 0 0 0 -1-1h4a1 1 0 0 1 1 1z" fill="#46f8ff"/><path d="m7 45h10v12h-10z" fill="#9cdd05"/><path d="m7 31h10v10h-10z" fill="#ffde55"/><path d="m27 45h4v12h-4z" fill="#006df0"/><path d="m27 31h4v10h-4z" fill="#cd2a00"/><path d="m13 45h4v12h-4z" fill="#5eac24"/><path d="m13 31h4v10h-4z" fill="#ebbf00"/><path d="m61.708 14.344-12.008-12.05a1 1 0 0 0 -.71-.294h-27.99a3 3 0 0 0 -3 3v11h-11a5.006 5.006 0 0 0 -5 5v36c0 3.131 1.5 5 4 5h25a5.006 5.006 0 0 0 5-5v-1h23a3 3 0 0 0 3-3v-37.95a1 1 0 0 0 -.292-.706zm-11.708-8.914 8.542 8.57h-7.542a1 1 0 0 1 -1-1zm-16 51.57a3 3 0 0 1 -3 3h-25c-.5 0-2 0-2-3v-36a3 3 0 0 1 3-3h24a3 3 0 0 1 3 3zm2-24.3a11 11 0 1 1 0 12.605zm23 21.3h-23v-5.639a13 13 0 1 0 0-18.722v-8.639a5.006 5.006 0 0 0 -5-5h-11v-11a1 1 0 0 1 1-1h27v9a3 3 0 0 0 3 3h9v37a1 1 0 0 1 -1 1z"/><path d="m30 20h-22a2 2 0 0 0 -2 2v4a2 2 0 0 0 2 2h22a2 2 0 0 0 2-2v-4a2 2 0 0 0 -2-2zm-22 6v-4h22v4z"/><path d="m17 30h-10a1 1 0 0 0 -1 1v10a1 1 0 0 0 1 1h10a1 1 0 0 0 1-1v-10a1 1 0 0 0 -1-1zm-1 10h-8v-8h8z"/><path d="m31 30h-10a1 1 0 0 0 -1 1v10a1 1 0 0 0 1 1h10a1 1 0 0 0 1-1v-10a1 1 0 0 0 -1-1zm-1 10h-8v-8h8z"/><path d="m31 44h-10a1 1 0 0 0 -1 1v12a1 1 0 0 0 1 1h10a1 1 0 0 0 1-1v-12a1 1 0 0 0 -1-1zm-1 12h-8v-10h8z"/><path d="m11 39h2v-2h2v-2h-2v-2h-2v2h-2v2h2z"/><path d="m23 35h6v2h-6z"/><path d="m17 44h-10a1 1 0 0 0 -1 1v12a1 1 0 0 0 1 1h10a1 1 0 0 0 1-1v-12a1 1 0 0 0 -1-1zm-1 12h-8v-10h8z"/><path d="m10.832 54.555 1.168-1.752 1.168 1.752 1.664-1.11-1.63-2.445 1.63-2.445-1.664-1.11-1.168 1.752-1.168-1.752-1.664 1.11 1.63 2.445-1.63 2.445z"/><path d="m23 50h6v2h-6z"/><path d="m25 47h2v2h-2z"/><path d="m25 53h2v2h-2z"/><path d="m45 44a2 2 0 0 1 -2-2h-2a4 4 0 0 0 3 3.858v2.142h2v-2.142a3.992 3.992 0 0 0 -1-7.858 2 2 0 1 1 2-2h2a4 4 0 0 0 -3-3.858v-2.142h-2v2.142a3.992 3.992 0 0 0 1 7.858 2 2 0 0 1 0 4z"/><path d="m24 8h4v2h-4z"/><path d="m30 8h14v2h-14z"/><path d="m24 12h4v2h-4z"/><path d="m30 12h14v2h-14z"/><path d="m38 18h4v2h-4z"/><path d="m44 18h14v2h-14z"/><path d="m38 22h4v2h-4z"/><path d="m44 22h14v2h-14z"/></g></svg>